<?xml version="1.0" standalone="no"?>
<!DOCTYPE svg PUBLIC "-//W3C//DTD SVG 20010904//EN"
 "http://www.w3.org/TR/2001/REC-SVG-20010904/DTD/svg10.dtd">
<svg version="1.0" xmlns="http://www.w3.org/2000/svg"
 width="700.000000pt" height="700.000000pt" viewBox="0 0 700.000000 700.000000"
 preserveAspectRatio="xMidYMid meet">
<metadata>
Created by potrace 1.14, written by Peter Selinger 2001-2017
</metadata>
<g transform="translate(0.000000,700.000000) scale(0.100000,-0.100000)"
fill="#000000" stroke="none">
<path d="M4415 6125 c-77 -12 -218 -47 -260 -64 -99 -42 -211 -101 -283 -148
-72 -46 -175 -144 -583 -552 -289 -289 -514 -523 -541 -561 -170 -244 -249
-489 -249 -770 0 -99 3 -138 18 -220 3 -19 7 -42 8 -50 6 -39 39 -150 66 -217
40 -100 65 -147 146 -268 101 -153 277 -309 447 -400 l60 -31 169 169 170 169
-68 24 c-127 45 -239 118 -342 225 -230 239 -301 607 -176 917 64 161 86 187
577 680 254 255 488 483 521 507 159 115 326 167 525 166 544 -2 954 -508 845
-1043 -44 -219 -108 -318 -379 -591 l-204 -205 18 -83 c26 -113 34 -199 35
-351 0 -123 1 -126 19 -110 31 29 578 577 625 627 181 194 293 440 336 740 7
50 7 226 0 285 -77 613 -530 1074 -1140 1159 -87 12 -267 10 -360 -4z"/>
<path d="M3612 4448 c-78 -79 -151 -155 -162 -170 l-20 -26 37 -13 c248 -80
460 -292 548 -544 96 -276 51 -572 -125 -810 -57 -77 -922 -938 -994 -990
-261 -186 -623 -211 -904 -63 -468 248 -618 826 -329 1263 22 33 133 155 247
270 l208 210 -24 115 c-16 78 -26 167 -30 275 -4 88 -7 161 -8 162 -2 2 -158
-154 -347 -345 -364 -366 -410 -421 -497 -597 -128 -259 -165 -553 -106 -840
36 -176 102 -328 208 -485 54 -80 211 -248 261 -280 17 -11 55 -37 85 -59 127
-91 341 -178 510 -205 112 -19 280 -24 355 -12 17 2 50 7 75 11 200 30 424
126 588 251 74 57 947 927 1021 1019 156 190 250 415 286 680 8 55 7 236 0
293 -15 111 -58 279 -91 352 -69 150 -115 228 -201 331 -74 91 -160 171 -246
233 -64 46 -183 116 -196 116 -4 0 -71 -64 -149 -142z"/>
</g>
</svg>
